<?xml version="1.0" standalone="no"?>
<!DOCTYPE svg PUBLIC "-//W3C//DTD SVG 1.1//EN" "http://www.w3.org/Graphics/SVG/1.1/DTD/svg11.dtd" >
<svg xmlns="http://www.w3.org/2000/svg" xmlns:xlink="http://www.w3.org/1999/xlink" version="1.1">
<metadata></metadata>
<defs>
<font id="steelfish_rgbold" horiz-adv-x="281" >
<font-face units-per-em="1000" ascent="800" descent="-200" />
<missing-glyph horiz-adv-x="136" />
<glyph unicode="&#x28;C&#x29;" horiz-adv-x="521" d="M0 0v0v0zM0 0v0v0zM0 0v0v0v0v0v0v0v0z" />
<glyph unicode="&#x28;R&#x29;" horiz-adv-x="521" d="M0 0v0v0zM0 0v0v0zM0 0v0v0zM0 0v0v0v0v0v0z" />
<glyph unicode="&#x28;P&#x29;" horiz-adv-x="521" d="M0 0v0v0zM0 0v0v0zM0 0v0v0zM0 0v0v0v0z" />
<glyph horiz-adv-x="136" />
<glyph unicode=" "  horiz-adv-x="136" />
<glyph unicode="&#x09;" horiz-adv-x="136" />
<glyph unicode="&#xa0;" horiz-adv-x="136" />
<glyph unicode="!" horiz-adv-x="173" d="M0 0zM0 0v0v0z" />
<glyph unicode="&#x22;" horiz-adv-x="276" d="M0 0v0v0zM0 0v0v0z" />
<glyph unicode="#" horiz-adv-x="401" d="M0 0v0v0v0v0v0v0v0v0v0v0v0v0v0zM0 0z" />
<glyph unicode="$" horiz-adv-x="287" d="M0 0v0v0v0v0v0v0v0v0v0v0v0v0zM0 0zM0 0z" />
<glyph unicode="%" horiz-adv-x="484" d="M0 0v0v0zM0 0v0v0zM0 0zM0 0v0v0zM0 0v0v0z" />
<glyph unicode="&#x26;" horiz-adv-x="380" d="M0 0v0v0v0v0v0v0v0v0v0v0zM0 0v0v0zM0 0v0v0v0z" />
<glyph unicode="'" horiz-adv-x="143" d="M0 0v0v0z" />
<glyph unicode="(" horiz-adv-x="256" d="M0 0v0v0v0v0v0z" />
<glyph unicode=")" horiz-adv-x="256" d="M0 0v0v0v0v0v0z" />
<glyph unicode="*" horiz-adv-x="326" d="M0 0v0v0v0v0v0v0v0z" />
<glyph unicode="+" horiz-adv-x="466" d="M0 0v0v0v0v0v0z" />
<glyph unicode="," horiz-adv-x="146" d="M0 0v0v0v0v0z" />
<glyph unicode="-" horiz-adv-x="182" d="M0 0z" />
<glyph unicode="." horiz-adv-x="145" d="M0 0z" />
<glyph unicode="/" horiz-adv-x="242" d="M0 0z" />
<glyph unicode="0" horiz-adv-x="330" d="M0 0v0v0zM0 0v0v0z" />
<glyph unicode="1" horiz-adv-x="190" d="M0 0v0v0v0v0z" />
<glyph unicode="2" horiz-adv-x="311" d="M0 0v0v0v0v0v0v0v0v0z" />
<glyph unicode="3" horiz-adv-x="312" d="M0 0v0v0v0v0v0v0v0v0v0v0v0v0z" />
<glyph unicode="4" horiz-adv-x="321" d="M0 0zM0 0v0v0v0v0v0z" />
<glyph unicode="5" horiz-adv-x="317" d="M0 0v0v0v0v0v0v0v0v0v0z" />
<glyph unicode="6" horiz-adv-x="321" d="M0 0v0v0zM0 0v0v0v0v0v0v0z" />
<glyph unicode="7" horiz-adv-x="290" d="M0 0v0v0v0z" />
<glyph unicode="8" horiz-adv-x="316" d="M0 0v0v0v0v0v0zM0 0v0v0zM0 0v0v0z" />
<glyph unicode="9" horiz-adv-x="320" d="M0 0v0v0zM0 0v0v0v0v0v0v0z" />
<glyph unicode=":" horiz-adv-x="145" d="M0 0zM0 0z" />
<glyph unicode=";" horiz-adv-x="146" d="M0 0zM0 0v0v0v0v0z" />
<glyph unicode="&#x3c;" horiz-adv-x="466" d="M0 0v0v0v0z" />
<glyph unicode="=" horiz-adv-x="466" d="M0 0zM0 0z" />
<glyph unicode="&#x3e;" horiz-adv-x="466" d="M0 0v0v0v0z" />
<glyph unicode="?" horiz-adv-x="300" d="M0 0v0v0v0v0v0v0v0zM0 0z" />
<glyph unicode="@" horiz-adv-x="520" d="M0 0v0v0v0v0v0v0v0v0v0v0v0v0v0zM0 0v0v0z" />
<glyph unicode="A" horiz-adv-x="337" d="M0 0v0v0v0zM0 0z" />
<glyph unicode="B" horiz-adv-x="327" d="M0 0v0v0zM0 0v0v0zM0 0v0v0v0v0z" />
<glyph unicode="C" horiz-adv-x="310" d="M0 0v0v0v0v0v0v0v0z" />
<glyph unicode="D" horiz-adv-x="328" d="M0 0v0v0zM0 0v0v0z" />
<glyph unicode="E" d="M0 0v0v0v0v0v0z" />
<glyph unicode="F" horiz-adv-x="271" d="M0 0v0v0v0v0z" />
<glyph unicode="G" horiz-adv-x="324" d="M0 0v0v0v0v0v0v0v0v0v0z" />
<glyph unicode="H" horiz-adv-x="334" d="M0 0v0v0v0v0v0z" />
<glyph unicode="I" horiz-adv-x="168" d="M0 0z" />
<glyph unicode="J" horiz-adv-x="217" d="M0 0v0v0v0z" />
<glyph unicode="K" horiz-adv-x="351" d="M0 0v0v0v0v0v0v0z" />
<glyph unicode="L" horiz-adv-x="272" d="M0 0v0v0z" />
<glyph unicode="M" horiz-adv-x="455" d="M0 0v0v0v0v0v0v0v0z" />
<glyph unicode="N" horiz-adv-x="355" d="M0 0v0v0v0v0v0z" />
<glyph unicode="O" horiz-adv-x="323" d="M0 0v0v0zM0 0v0v0z" />
<glyph unicode="P" horiz-adv-x="324" d="M0 0v0v0zM0 0v0v0v0z" />
<glyph unicode="Q" horiz-adv-x="323" d="M0 0v0v0v0v0v0zM0 0v0v0z" />
<glyph unicode="R" horiz-adv-x="332" d="M0 0v0v0zM0 0v0v0v0v0v0z" />
<glyph unicode="S" horiz-adv-x="312" d="M0 0v0v0v0v0v0v0v0v0v0v0v0z" />
<glyph unicode="T" horiz-adv-x="284" d="M0 0v0v0v0z" />
<glyph unicode="U" horiz-adv-x="328" d="M0 0v0v0v0v0z" />
<glyph unicode="V" horiz-adv-x="340" d="M0 0v0v0v0z" />
<glyph unicode="W" horiz-adv-x="532" d="M0 0v0v0v0v0v0v0z" />
<glyph unicode="X" horiz-adv-x="342" d="M0 0v0v0v0v0v0z" />
<glyph unicode="Y" horiz-adv-x="334" d="M0 0v0v0v0v0z" />
<glyph unicode="Z" horiz-adv-x="309" d="M0 0v0v0v0v0z" />
<glyph unicode="[" horiz-adv-x="250" d="M0 0v0v0v0z" />
<glyph unicode="\" horiz-adv-x="242" d="M0 0z" />
<glyph unicode="]" horiz-adv-x="250" d="M0 0v0v0v0z" />
<glyph unicode="^" horiz-adv-x="319" d="M0 0v0v0v0z" />
<glyph unicode="_" horiz-adv-x="303" d="M0 0z" />
<glyph unicode="`" horiz-adv-x="289" d="M0 0z" />
<glyph unicode="a" horiz-adv-x="285" d="M0 0v0v0v0v0v0v0v0zM0 0v0v0z" />
<glyph unicode="b" horiz-adv-x="304" d="M0 0v0v0zM0 0v0v0v0v0z" />
<glyph unicode="c" horiz-adv-x="284" d="M0 0v0v0v0v0v0v0v0z" />
<glyph unicode="d" horiz-adv-x="304" d="M0 0v0v0zM0 0v0v0v0v0z" />
<glyph unicode="e" d="M0 0v0v0zM0 0v0v0v0v0v0v0z" />
<glyph unicode="f" horiz-adv-x="191" d="M0 0v0v0v0v0v0v0v0z" />
<glyph unicode="g" horiz-adv-x="304" d="M0 0v0v0v0v0v0v0v0zM0 0v0v0z" />
<glyph unicode="h" horiz-adv-x="303" d="M0 0v0v0v0v0v0z" />
<glyph unicode="i" horiz-adv-x="158" d="M0 0zM0 0z" />
<glyph unicode="j" horiz-adv-x="172" d="M0 0v0v0v0zM0 0z" />
<glyph unicode="k" horiz-adv-x="300" d="M0 0v0v0v0v0v0v0z" />
<glyph unicode="l" horiz-adv-x="155" d="M0 0z" />
<glyph unicode="m" horiz-adv-x="442" d="M0 0v0v0v0v0v0v0v0v0v0z" />
<glyph unicode="n" horiz-adv-x="303" d="M0 0v0v0v0v0v0z" />
<glyph unicode="o" horiz-adv-x="291" d="M0 0v0v0zM0 0v0v0z" />
<glyph unicode="p" horiz-adv-x="304" d="M0 0v0v0zM0 0v0v0v0v0z" />
<glyph unicode="q" horiz-adv-x="304" d="M0 0v0v0zM0 0v0v0v0v0z" />
<glyph unicode="r" horiz-adv-x="207" d="M0 0v0v0v0v0z" />
<glyph unicode="s" horiz-adv-x="279" d="M0 0v0v0v0v0v0v0v0v0v0v0v0z" />
<glyph unicode="t" horiz-adv-x="191" d="M0 0v0v0v0v0v0v0v0z" />
<glyph unicode="u" horiz-adv-x="301" d="M0 0v0v0v0v0v0z" />
<glyph unicode="v" horiz-adv-x="278" d="M0 0v0v0v0z" />
<glyph unicode="w" horiz-adv-x="422" d="M0 0v0v0v0v0v0v0z" />
<glyph unicode="x" horiz-adv-x="286" d="M0 0v0v0v0v0v0z" />
<glyph unicode="y" horiz-adv-x="278" d="M0 0v0v0v0v0v0z" />
<glyph unicode="z" horiz-adv-x="257" d="M0 0v0v0v0v0z" />
<glyph unicode="{" horiz-adv-x="273" d="M0 0v0v0v0v0v0v0v0v0v0v0z" />
<glyph unicode="|" horiz-adv-x="202" d="M0 0z" />
<glyph unicode="}" horiz-adv-x="273" d="M0 0v0v0v0v0v0v0v0v0v0v0z" />
<glyph unicode="~" horiz-adv-x="467" d="M0 0v0v0v0z" />
<glyph unicode="&#xa1;" horiz-adv-x="173" d="M0 0zM0 0v0v0z" />
<glyph unicode="&#xa2;" horiz-adv-x="282" d="M0 0v0v0v0v0v0v0v0v0v0zM0 0z" />
<glyph unicode="&#xa3;" horiz-adv-x="287" d="M0 0v0v0v0v0v0v0v0v0v0v0v0v0v0z" />
<glyph unicode="&#xa4;" horiz-adv-x="491" d="M0 0v0v0v0v0v0v0v0v0v0zM0 0z" />
<glyph unicode="&#xa5;" horiz-adv-x="342" d="M0 0v0v0v0v0v0v0v0v0v0v0v0v0z" />
<glyph unicode="&#xa6;" horiz-adv-x="202" d="M0 0zM0 0z" />
<glyph unicode="&#xa7;" horiz-adv-x="289" d="M0 0v0v0v0v0v0v0v0v0v0v0v0v0v0v0zM0 0v0v0v0z" />
<glyph unicode="&#xa8;" horiz-adv-x="307" d="M0 0zM0 0z" />
<glyph unicode="&#xaa;" horiz-adv-x="217" d="M0 0v0v0v0v0v0v0v0zM0 0v0v0z" />
<glyph unicode="&#xab;" horiz-adv-x="390" d="M0 0v0v0v0zM0 0v0v0v0z" />
<glyph unicode="&#xac;" horiz-adv-x="427" d="M0 0v0v0z" />
<glyph unicode="&#xaf;" horiz-adv-x="305" d="M0 0z" />
<glyph unicode="&#xb0;" horiz-adv-x="306" d="M0 0zM0 0z" />
<glyph unicode="&#xb1;" horiz-adv-x="466" d="M0 0v0v0v0v0v0zM0 0z" />
<glyph unicode="&#xb2;" horiz-adv-x="186" d="M0 0v0v0v0v0v0v0v0v0z" />
<glyph unicode="&#xb3;" horiz-adv-x="186" d="M0 0v0v0v0v0v0v0v0v0v0v0v0v0z" />
<glyph unicode="&#xb4;" horiz-adv-x="289" d="M0 0z" />
<glyph unicode="&#xb6;" horiz-adv-x="432" d="M0 0v0v0v0v0v0v0v0v0zM0 0v0v0z" />
<glyph unicode="&#xb7;" horiz-adv-x="145" d="M0 0z" />
<glyph unicode="&#xb8;" horiz-adv-x="141" d="M0 0v0v0v0v0z" />
<glyph unicode="&#xb9;" horiz-adv-x="132" d="M0 0v0v0v0v0z" />
<glyph unicode="&#xba;" horiz-adv-x="221" d="M0 0v0v0zM0 0v0v0z" />
<glyph unicode="&#xbb;" horiz-adv-x="390" d="M0 0v0v0v0zM0 0v0v0v0z" />
<glyph unicode="&#xbc;" horiz-adv-x="484" d="M0 0v0v0v0v0zM0 0zM0 0zM0 0v0v0v0v0v0z" />
<glyph unicode="&#xbd;" horiz-adv-x="484" d="M0 0v0v0v0v0zM0 0zM0 0v0v0v0v0v0v0v0v0z" />
<glyph unicode="&#xbe;" horiz-adv-x="484" d="M0 0v0v0v0v0v0v0v0v0v0v0v0v0zM0 0zM0 0zM0 0v0v0v0v0v0z" />
<glyph unicode="&#xbf;" horiz-adv-x="300" d="M0 0v0v0v0v0v0v0v0zM0 0z" />
<glyph unicode="&#xc0;" horiz-adv-x="337" d="M0 0v0v0v0zM0 0zM0 0z" />
<glyph unicode="&#xc1;" horiz-adv-x="337" d="M0 0v0v0v0zM0 0zM0 0z" />
<glyph unicode="&#xc2;" horiz-adv-x="337" d="M0 0v0v0v0zM0 0zM0 0v0v0v0z" />
<glyph unicode="&#xc3;" horiz-adv-x="337" d="M0 0v0v0v0zM0 0zM0 0v0v0v0v0z" />
<glyph unicode="&#xc4;" horiz-adv-x="337" d="M0 0v0v0v0zM0 0zM0 0zM0 0z" />
<glyph unicode="&#xc5;" horiz-adv-x="337" d="M0 0v0v0v0zM0 0zM0 0zM0 0z" />
<glyph unicode="&#xc6;" horiz-adv-x="467" d="M0 0v0v0v0v0v0v0v0zM0 0z" />
<glyph unicode="&#xc7;" horiz-adv-x="310" d="M0 0v0v0v0v0v0v0v0zM0 0v0v0v0v0z" />
<glyph unicode="&#xc8;" d="M0 0v0v0v0v0v0zM0 0z" />
<glyph unicode="&#xc9;" d="M0 0v0v0v0v0v0zM0 0z" />
<glyph unicode="&#xca;" d="M0 0v0v0v0v0v0zM0 0v0v0v0z" />
<glyph unicode="&#xcb;" d="M0 0v0v0v0v0v0zM0 0zM0 0z" />
<glyph unicode="&#xcc;" horiz-adv-x="168" d="M0 0zM0 0z" />
<glyph unicode="&#xcd;" horiz-adv-x="168" d="M0 0zM0 0z" />
<glyph unicode="&#xce;" horiz-adv-x="168" d="M0 0zM0 0v0v0v0z" />
<glyph unicode="&#xcf;" horiz-adv-x="168" d="M0 0zM0 0zM0 0z" />
<glyph unicode="&#xd0;" horiz-adv-x="326" d="M0 0v0v0v0v0zM0 0v0v0v0v0z" />
<glyph unicode="&#xd1;" horiz-adv-x="355" d="M0 0v0v0v0v0v0zM0 0v0v0v0v0z" />
<glyph unicode="&#xd2;" horiz-adv-x="323" d="M0 0v0v0zM0 0v0v0zM0 0z" />
<glyph unicode="&#xd3;" horiz-adv-x="323" d="M0 0v0v0zM0 0v0v0zM0 0z" />
<glyph unicode="&#xd4;" horiz-adv-x="323" d="M0 0v0v0zM0 0v0v0zM0 0v0v0v0z" />
<glyph unicode="&#xd5;" horiz-adv-x="323" d="M0 0v0v0zM0 0v0v0zM0 0v0v0v0v0z" />
<glyph unicode="&#xd6;" horiz-adv-x="323" d="M0 0v0v0zM0 0v0v0zM0 0zM0 0z" />
<glyph unicode="&#xd7;" horiz-adv-x="466" d="M0 0v0v0v0v0v0z" />
<glyph unicode="&#xd8;" horiz-adv-x="323" d="M0 0v0v0v0v0v0v0zM0 0v0v0zM0 0v0v0z" />
<glyph unicode="&#xd9;" horiz-adv-x="328" d="M0 0v0v0v0v0zM0 0z" />
<glyph unicode="&#xda;" horiz-adv-x="328" d="M0 0v0v0v0v0zM0 0z" />
<glyph unicode="&#xdb;" horiz-adv-x="328" d="M0 0v0v0v0v0zM0 0v0v0v0z" />
<glyph unicode="&#xdc;" horiz-adv-x="328" d="M0 0v0v0v0v0zM0 0zM0 0z" />
<glyph unicode="&#xdd;" horiz-adv-x="334" d="M0 0v0v0v0v0zM0 0z" />
<glyph unicode="&#xde;" horiz-adv-x="329" d="M0 0v0v0zM0 0v0v0v0v0z" />
<glyph unicode="&#xdf;" horiz-adv-x="330" d="M0 0v0v0v0v0v0v0v0v0v0v0v0z" />
<glyph unicode="&#xe0;" horiz-adv-x="285" d="M0 0v0v0v0v0v0v0v0zM0 0v0v0zM0 0z" />
<glyph unicode="&#xe1;" horiz-adv-x="285" d="M0 0v0v0v0v0v0v0v0zM0 0v0v0zM0 0z" />
<glyph unicode="&#xe2;" horiz-adv-x="285" d="M0 0v0v0v0v0v0v0v0zM0 0v0v0zM0 0v0v0v0z" />
<glyph unicode="&#xe3;" horiz-adv-x="285" d="M0 0v0v0v0v0v0v0v0zM0 0v0v0zM0 0v0v0v0v0z" />
<glyph unicode="&#xe4;" horiz-adv-x="285" d="M0 0v0v0v0v0v0v0v0zM0 0v0v0zM0 0zM0 0z" />
<glyph unicode="&#xe5;" horiz-adv-x="285" d="M0 0v0v0v0v0v0v0v0zM0 0v0v0zM0 0zM0 0z" />
<glyph unicode="&#xe6;" horiz-adv-x="424" d="M0 0v0v0v0v0v0v0v0v0v0v0v0zM0 0v0v0zM0 0v0v0z" />
<glyph unicode="&#xe7;" horiz-adv-x="284" d="M0 0v0v0v0v0v0v0v0zM0 0v0v0v0v0z" />
<glyph unicode="&#xe8;" d="M0 0v0v0zM0 0v0v0v0v0v0v0zM0 0z" />
<glyph unicode="&#xe9;" d="M0 0v0v0zM0 0v0v0v0v0v0v0zM0 0z" />
<glyph unicode="&#xea;" d="M0 0v0v0zM0 0v0v0v0v0v0v0zM0 0v0v0v0z" />
<glyph unicode="&#xeb;" d="M0 0v0v0zM0 0v0v0v0v0v0v0zM0 0zM0 0z" />
<glyph unicode="&#xec;" horiz-adv-x="170" d="M0 0zM0 0z" />
<glyph unicode="&#xed;" horiz-adv-x="186" d="M0 0zM0 0z" />
<glyph unicode="&#xee;" horiz-adv-x="241" d="M0 0zM0 0v0v0v0z" />
<glyph unicode="&#xef;" horiz-adv-x="190" d="M0 0zM0 0zM0 0z" />
<glyph unicode="&#xf0;" horiz-adv-x="323" d="M0 0v0v0v0v0v0v0v0v0zM0 0v0v0z" />
<glyph unicode="&#xf1;" horiz-adv-x="303" d="M0 0v0v0v0v0v0zM0 0v0v0v0v0z" />
<glyph unicode="&#xf2;" horiz-adv-x="291" d="M0 0v0v0zM0 0v0v0zM0 0z" />
<glyph unicode="&#xf3;" horiz-adv-x="291" d="M0 0v0v0zM0 0v0v0zM0 0z" />
<glyph unicode="&#xf4;" horiz-adv-x="291" d="M0 0v0v0zM0 0v0v0zM0 0v0v0v0z" />
<glyph unicode="&#xf5;" horiz-adv-x="291" d="M0 0v0v0zM0 0v0v0zM0 0v0v0v0v0z" />
<glyph unicode="&#xf6;" horiz-adv-x="291" d="M0 0v0v0zM0 0v0v0zM0 0zM0 0z" />
<glyph unicode="&#xf7;" horiz-adv-x="466" d="M0 0zM0 0zM0 0z" />
<glyph unicode="&#xf8;" horiz-adv-x="291" d="M0 0v0v0v0v0v0v0zM0 0zM0 0z" />
<glyph unicode="&#xf9;" horiz-adv-x="301" d="M0 0v0v0v0v0v0zM0 0z" />
<glyph unicode="&#xfa;" horiz-adv-x="301" d="M0 0v0v0v0v0v0zM0 0z" />
<glyph unicode="&#xfb;" horiz-adv-x="301" d="M0 0v0v0v0v0v0zM0 0v0v0v0z" />
<glyph unicode="&#xfc;" horiz-adv-x="301" d="M0 0v0v0v0v0v0zM0 0zM0 0z" />
<glyph unicode="&#xfd;" horiz-adv-x="278" d="M0 0v0v0v0v0v0zM0 0z" />
<glyph unicode="&#xfe;" horiz-adv-x="304" d="M0 0v0v0v0v0zM0 0v0v0z" />
<glyph unicode="&#xff;" horiz-adv-x="278" d="M0 0v0v0v0v0v0zM0 0zM0 0z" />
<glyph unicode="&#x100;" horiz-adv-x="337" d="M0 0v0v0v0zM0 0zM0 0z" />
<glyph unicode="&#x101;" horiz-adv-x="285" d="M0 0v0v0v0v0v0v0v0zM0 0v0v0zM0 0z" />
<glyph unicode="&#x102;" horiz-adv-x="337" d="M0 0v0v0v0zM0 0zM0 0v0v0z" />
<glyph unicode="&#x103;" horiz-adv-x="285" d="M0 0v0v0v0v0v0v0v0zM0 0v0v0zM0 0v0v0z" />
<glyph unicode="&#x104;" horiz-adv-x="337" d="M0 0v0v0v0v0v0v0v0zM0 0z" />
<glyph unicode="&#x105;" horiz-adv-x="285" d="M0 0v0v0v0v0v0v0v0v0v0v0v0zM0 0v0v0z" />
<glyph unicode="&#x106;" horiz-adv-x="310" d="M0 0v0v0v0v0v0v0v0zM0 0z" />
<glyph unicode="&#x107;" horiz-adv-x="284" d="M0 0v0v0v0v0v0v0v0zM0 0z" />
<glyph unicode="&#x108;" horiz-adv-x="310" d="M0 0v0v0v0v0v0v0v0zM0 0v0v0v0z" />
<glyph unicode="&#x109;" horiz-adv-x="284" d="M0 0v0v0v0v0v0v0v0zM0 0v0v0v0z" />
<glyph unicode="&#x10a;" horiz-adv-x="310" d="M0 0v0v0v0v0v0v0v0zM0 0z" />
<glyph unicode="&#x10b;" horiz-adv-x="284" d="M0 0v0v0v0v0v0v0v0zM0 0z" />
<glyph unicode="&#x10c;" horiz-adv-x="310" d="M0 0v0v0v0v0v0v0v0zM0 0v0v0v0z" />
<glyph unicode="&#x10d;" horiz-adv-x="284" d="M0 0v0v0v0v0v0v0v0zM0 0v0v0v0z" />
<glyph unicode="&#x10e;" horiz-adv-x="328" d="M0 0v0v0zM0 0v0v0zM0 0v0v0v0z" />
<glyph unicode="&#x10f;" horiz-adv-x="390" d="M0 0v0v0zM0 0v0v0v0v0zM0 0v0v0v0v0z" />
<glyph unicode="&#x110;" horiz-adv-x="326" d="M0 0v0v0v0v0zM0 0v0v0v0v0z" />
<glyph unicode="&#x111;" horiz-adv-x="304" d="M0 0v0v0v0v0v0v0v0v0zM0 0v0v0z" />
<glyph unicode="&#x112;" d="M0 0v0v0v0v0v0zM0 0z" />
<glyph unicode="&#x113;" d="M0 0v0v0zM0 0v0v0v0v0v0v0zM0 0z" />
<glyph unicode="&#x114;" d="M0 0v0v0v0v0v0zM0 0v0v0z" />
<glyph unicode="&#x115;" d="M0 0v0v0zM0 0v0v0v0v0v0v0zM0 0v0v0z" />
<glyph unicode="&#x116;" d="M0 0v0v0v0v0v0zM0 0z" />
<glyph unicode="&#x117;" d="M0 0v0v0zM0 0v0v0v0v0v0v0zM0 0z" />
<glyph unicode="&#x118;" d="M0 0v0v0v0v0v0v0v0v0v0v0z" />
<glyph unicode="&#x119;" d="M0 0v0v0v0v0v0v0v0v0v0v0zM0 0v0v0z" />
<glyph unicode="&#x11a;" d="M0 0v0v0v0v0v0zM0 0v0v0v0z" />
<glyph unicode="&#x11b;" d="M0 0v0v0zM0 0v0v0v0v0v0v0zM0 0v0v0v0z" />
<glyph unicode="&#x11c;" horiz-adv-x="324" d="M0 0v0v0v0v0v0v0v0v0v0zM0 0v0v0v0z" />
<glyph unicode="&#x11d;" horiz-adv-x="304" d="M0 0v0v0v0v0v0v0v0zM0 0v0v0zM0 0v0v0v0z" />
<glyph unicode="&#x11e;" horiz-adv-x="324" d="M0 0v0v0v0v0v0v0v0v0v0zM0 0v0v0z" />
<glyph unicode="&#x11f;" horiz-adv-x="304" d="M0 0v0v0v0v0v0v0v0zM0 0v0v0zM0 0v0v0z" />
<glyph unicode="&#x120;" horiz-adv-x="324" d="M0 0v0v0v0v0v0v0v0v0v0zM0 0z" />
<glyph unicode="&#x121;" horiz-adv-x="304" d="M0 0v0v0v0v0v0v0v0zM0 0v0v0zM0 0z" />
<glyph unicode="&#x122;" horiz-adv-x="324" d="M0 0v0v0v0v0v0v0v0v0v0zM0 0v0v0v0v0z" />
<glyph unicode="&#x123;" horiz-adv-x="304" d="M0 0v0v0v0v0v0v0v0zM0 0v0v0zM0 0v0v0v0v0z" />
<glyph unicode="&#x124;" horiz-adv-x="334" d="M0 0v0v0v0v0v0zM0 0v0v0v0z" />
<glyph unicode="&#x125;" horiz-adv-x="303" d="M0 0v0v0v0v0v0zM0 0v0v0v0z" />
<glyph unicode="&#x126;" horiz-adv-x="334" d="M0 0v0v0v0v0v0zM0 0z" />
<glyph unicode="&#x127;" horiz-adv-x="303" d="M0 0v0v0v0v0v0v0v0v0v0z" />
<glyph unicode="&#x128;" horiz-adv-x="168" d="M0 0zM0 0v0v0v0v0z" />
<glyph unicode="&#x129;" horiz-adv-x="183" d="M0 0zM0 0v0v0v0v0z" />
<glyph unicode="&#x12a;" horiz-adv-x="168" d="M0 0zM0 0z" />
<glyph unicode="&#x12b;" horiz-adv-x="184" d="M0 0zM0 0z" />
<glyph unicode="&#x12c;" horiz-adv-x="168" d="M0 0zM0 0v0v0z" />
<glyph unicode="&#x12d;" horiz-adv-x="212" d="M0 0zM0 0v0v0z" />
<glyph unicode="&#x12e;" horiz-adv-x="168" d="M0 0v0v0v0v0v0z" />
<glyph unicode="&#x12f;" horiz-adv-x="158" d="M0 0v0v0v0v0v0zM0 0z" />
<glyph unicode="&#x130;" horiz-adv-x="168" d="M0 0zM0 0z" />
<glyph unicode="&#x131;" horiz-adv-x="158" d="M0 0z" />
<glyph unicode="&#x132;" horiz-adv-x="385" d="M0 0zM0 0v0v0v0z" />
<glyph unicode="&#x133;" horiz-adv-x="330" d="M0 0zM0 0zM0 0v0v0v0zM0 0z" />
<glyph unicode="&#x134;" horiz-adv-x="217" d="M0 0v0v0v0zM0 0v0v0v0z" />
<glyph unicode="&#x135;" horiz-adv-x="220" d="M0 0v0v0v0zM0 0v0v0v0z" />
<glyph unicode="&#x136;" horiz-adv-x="351" d="M0 0v0v0v0v0v0v0zM0 0v0v0v0v0z" />
<glyph unicode="&#x137;" horiz-adv-x="300" d="M0 0v0v0v0v0v0v0zM0 0v0v0v0v0z" />
<glyph unicode="&#x139;" horiz-adv-x="272" d="M0 0v0v0zM0 0z" />
<glyph unicode="&#x13a;" horiz-adv-x="155" d="M0 0zM0 0z" />
<glyph unicode="&#x13b;" horiz-adv-x="272" d="M0 0v0v0zM0 0v0v0v0v0z" />
<glyph unicode="&#x13c;" horiz-adv-x="155" d="M0 0zM0 0v0v0v0v0z" />
<glyph unicode="&#x13d;" horiz-adv-x="278" d="M0 0v0v0zM0 0v0v0v0v0z" />
<glyph unicode="&#x13e;" horiz-adv-x="241" d="M0 0zM0 0v0v0v0v0z" />
<glyph unicode="&#x13f;" horiz-adv-x="272" d="M0 0v0v0zM0 0z" />
<glyph unicode="&#x140;" horiz-adv-x="238" d="M0 0zM0 0z" />
<glyph unicode="&#x141;" horiz-adv-x="276" d="M0 0v0v0v0v0v0v0z" />
<glyph unicode="&#x142;" horiz-adv-x="215" d="M0 0v0v0v0v0v0z" />
<glyph unicode="&#x143;" horiz-adv-x="355" d="M0 0v0v0v0v0v0zM0 0z" />
<glyph unicode="&#x144;" horiz-adv-x="303" d="M0 0v0v0v0v0v0zM0 0z" />
<glyph unicode="&#x145;" horiz-adv-x="355" d="M0 0v0v0v0v0v0zM0 0v0v0v0v0z" />
<glyph unicode="&#x146;" horiz-adv-x="303" d="M0 0v0v0v0v0v0zM0 0v0v0v0v0z" />
<glyph unicode="&#x147;" horiz-adv-x="355" d="M0 0v0v0v0v0v0zM0 0v0v0v0z" />
<glyph unicode="&#x148;" horiz-adv-x="303" d="M0 0v0v0v0v0v0zM0 0v0v0v0z" />
<glyph unicode="&#x14a;" horiz-adv-x="355" d="M0 0v0v0v0v0v0v0v0z" />
<glyph unicode="&#x14b;" horiz-adv-x="303" d="M0 0v0v0v0v0v0v0v0z" />
<glyph unicode="&#x14c;" horiz-adv-x="323" d="M0 0v0v0zM0 0v0v0zM0 0z" />
<glyph unicode="&#x14d;" horiz-adv-x="291" d="M0 0v0v0zM0 0v0v0zM0 0z" />
<glyph unicode="&#x14e;" horiz-adv-x="323" d="M0 0v0v0zM0 0v0v0zM0 0v0v0z" />
<glyph unicode="&#x14f;" horiz-adv-x="291" d="M0 0v0v0zM0 0v0v0zM0 0v0v0z" />
<glyph unicode="&#x150;" horiz-adv-x="323" d="M0 0v0v0zM0 0v0v0zM0 0zM0 0z" />
<glyph unicode="&#x151;" horiz-adv-x="291" d="M0 0v0v0zM0 0v0v0zM0 0zM0 0z" />
<glyph unicode="&#x152;" horiz-adv-x="436" d="M0 0v0v0v0v0v0v0v0zM0 0v0v0z" />
<glyph unicode="&#x153;" horiz-adv-x="435" d="M0 0v0v0v0v0v0v0v0v0zM0 0v0v0zM0 0v0v0z" />
<glyph unicode="&#x154;" horiz-adv-x="332" d="M0 0v0v0zM0 0v0v0v0v0v0zM0 0z" />
<glyph unicode="&#x155;" horiz-adv-x="207" d="M0 0v0v0v0v0zM0 0z" />
<glyph unicode="&#x156;" horiz-adv-x="332" d="M0 0v0v0zM0 0v0v0v0v0v0zM0 0v0v0v0v0z" />
<glyph unicode="&#x157;" horiz-adv-x="207" d="M0 0v0v0v0v0zM0 0v0v0v0v0z" />
<glyph unicode="&#x158;" horiz-adv-x="332" d="M0 0v0v0zM0 0v0v0v0v0v0zM0 0v0v0v0z" />
<glyph unicode="&#x159;" horiz-adv-x="207" d="M0 0v0v0v0v0zM0 0v0v0v0z" />
<glyph unicode="&#x15a;" horiz-adv-x="312" d="M0 0v0v0v0v0v0v0v0v0v0v0v0zM0 0z" />
<glyph unicode="&#x15b;" horiz-adv-x="279" d="M0 0v0v0v0v0v0v0v0v0v0v0v0zM0 0z" />
<glyph unicode="&#x15c;" horiz-adv-x="312" d="M0 0v0v0v0v0v0v0v0v0v0v0v0zM0 0v0v0v0z" />
<glyph unicode="&#x15d;" horiz-adv-x="279" d="M0 0v0v0v0v0v0v0v0v0v0v0v0zM0 0v0v0v0z" />
<glyph unicode="&#x15e;" horiz-adv-x="312" d="M0 0v0v0v0v0v0v0v0v0v0v0v0zM0 0v0v0v0v0z" />
<glyph unicode="&#x15f;" horiz-adv-x="279" d="M0 0v0v0v0v0v0v0v0v0v0v0v0zM0 0v0v0v0v0z" />
<glyph unicode="&#x160;" horiz-adv-x="312" d="M0 0v0v0v0v0v0v0v0v0v0v0v0zM0 0v0v0v0z" />
<glyph unicode="&#x161;" horiz-adv-x="279" d="M0 0v0v0v0v0v0v0v0v0v0v0v0zM0 0v0v0v0z" />
<glyph unicode="&#x162;" horiz-adv-x="284" d="M0 0v0v0v0zM0 0v0v0v0v0z" />
<glyph unicode="&#x163;" horiz-adv-x="191" d="M0 0v0v0v0v0v0v0v0zM0 0v0v0v0v0z" />
<glyph unicode="&#x164;" horiz-adv-x="284" d="M0 0v0v0v0zM0 0v0v0v0z" />
<glyph unicode="&#x165;" horiz-adv-x="251" d="M0 0v0v0v0v0v0v0v0zM0 0v0v0v0v0z" />
<glyph unicode="&#x166;" horiz-adv-x="284" d="M0 0v0v0v0v0v0v0v0z" />
<glyph unicode="&#x167;" horiz-adv-x="191" d="M0 0v0v0v0v0v0v0v0v0v0v0v0z" />
<glyph unicode="&#x168;" horiz-adv-x="328" d="M0 0v0v0v0v0zM0 0v0v0v0v0z" />
<glyph unicode="&#x169;" horiz-adv-x="301" d="M0 0v0v0v0v0v0zM0 0v0v0v0v0z" />
<glyph unicode="&#x16a;" horiz-adv-x="328" d="M0 0v0v0v0v0zM0 0z" />
<glyph unicode="&#x16b;" horiz-adv-x="301" d="M0 0v0v0v0v0v0zM0 0z" />
<glyph unicode="&#x16c;" horiz-adv-x="328" d="M0 0v0v0v0v0zM0 0v0v0z" />
<glyph unicode="&#x16d;" horiz-adv-x="301" d="M0 0v0v0v0v0v0zM0 0v0v0z" />
<glyph unicode="&#x16e;" horiz-adv-x="328" d="M0 0v0v0v0v0zM0 0zM0 0z" />
<glyph unicode="&#x16f;" horiz-adv-x="301" d="M0 0v0v0v0v0v0zM0 0zM0 0z" />
<glyph unicode="&#x170;" horiz-adv-x="328" d="M0 0v0v0v0v0zM0 0zM0 0z" />
<glyph unicode="&#x171;" horiz-adv-x="301" d="M0 0v0v0v0v0v0zM0 0zM0 0z" />
<glyph unicode="&#x172;" horiz-adv-x="328" d="M0 0v0v0v0v0v0v0v0v0v0z" />
<glyph unicode="&#x173;" horiz-adv-x="301" d="M0 0v0v0v0v0v0v0v0v0v0z" />
<glyph unicode="&#x174;" horiz-adv-x="532" d="M0 0v0v0v0v0v0v0zM0 0v0v0v0z" />
<glyph unicode="&#x175;" horiz-adv-x="422" d="M0 0v0v0v0v0v0v0zM0 0v0v0v0z" />
<glyph unicode="&#x176;" horiz-adv-x="334" d="M0 0v0v0v0v0zM0 0v0v0v0z" />
<glyph unicode="&#x177;" horiz-adv-x="278" d="M0 0v0v0v0v0v0zM0 0v0v0v0z" />
<glyph unicode="&#x178;" horiz-adv-x="334" d="M0 0v0v0v0v0zM0 0zM0 0z" />
<glyph unicode="&#x179;" horiz-adv-x="309" d="M0 0v0v0v0v0zM0 0z" />
<glyph unicode="&#x17a;" horiz-adv-x="257" d="M0 0v0v0v0v0zM0 0z" />
<glyph unicode="&#x17b;" horiz-adv-x="309" d="M0 0v0v0v0v0zM0 0z" />
<glyph unicode="&#x17c;" horiz-adv-x="257" d="M0 0v0v0v0v0zM0 0z" />
<glyph unicode="&#x17d;" horiz-adv-x="309" d="M0 0v0v0v0v0zM0 0v0v0v0z" />
<glyph unicode="&#x17e;" horiz-adv-x="257" d="M0 0v0v0v0v0zM0 0v0v0v0z" />
<glyph unicode="&#x192;" horiz-adv-x="411" d="M0 0v0v0v0v0v0v0v0v0v0z" />
<glyph unicode="&#x218;" horiz-adv-x="312" d="M0 0v0v0v0v0v0v0v0v0v0v0v0zM0 0v0v0v0v0z" />
<glyph unicode="&#x219;" horiz-adv-x="279" d="M0 0v0v0v0v0v0v0v0v0v0v0v0zM0 0v0v0v0v0z" />
<glyph unicode="&#x21a;" horiz-adv-x="284" d="M0 0v0v0v0zM0 0v0v0v0v0z" />
<glyph unicode="&#x21b;" horiz-adv-x="191" d="M0 0v0v0v0v0v0v0v0zM0 0v0v0v0v0z" />
<glyph unicode="&#x237;" horiz-adv-x="172" d="M0 0v0v0v0z" />
<glyph unicode="&#x2c6;" horiz-adv-x="387" d="M0 0v0v0v0z" />
<glyph unicode="&#x2c7;" horiz-adv-x="387" d="M0 0v0v0v0z" />
<glyph unicode="&#x2d8;" horiz-adv-x="343" d="M0 0v0v0z" />
<glyph unicode="&#x2d9;" horiz-adv-x="155" d="M0 0z" />
<glyph unicode="&#x2da;" horiz-adv-x="267" d="M0 0zM0 0z" />
<glyph unicode="&#x2db;" horiz-adv-x="269" d="M0 0v0v0v0v0z" />
<glyph unicode="&#x2dc;" horiz-adv-x="315" d="M0 0v0v0v0v0z" />
<glyph unicode="&#x2dd;" horiz-adv-x="454" d="M0 0zM0 0z" />
<glyph unicode="&#x394;" horiz-adv-x="339" d="M0 0zM0 0z" />
<glyph unicode="&#x3a9;" horiz-adv-x="266" d="M0 0v0v0v0v0v0v0v0v0v0z" />
<glyph unicode="&#x3bc;" horiz-adv-x="304" d="M0 0v0v0v0v0v0v0z" />
<glyph unicode="&#x3c0;" horiz-adv-x="390" d="M0 0v0v0v0v0v0z" />
<glyph unicode="&#x1e80;" horiz-adv-x="532" d="M0 0v0v0v0v0v0v0zM0 0z" />
<glyph unicode="&#x1e81;" horiz-adv-x="422" d="M0 0v0v0v0v0v0v0zM0 0z" />
<glyph unicode="&#x1e82;" horiz-adv-x="532" d="M0 0v0v0v0v0v0v0zM0 0z" />
<glyph unicode="&#x1e83;" horiz-adv-x="422" d="M0 0v0v0v0v0v0v0zM0 0z" />
<glyph unicode="&#x1e84;" horiz-adv-x="532" d="M0 0v0v0v0v0v0v0zM0 0zM0 0z" />
<glyph unicode="&#x1e85;" horiz-adv-x="422" d="M0 0v0v0v0v0v0v0zM0 0zM0 0z" />
<glyph unicode="&#x1ef2;" horiz-adv-x="334" d="M0 0v0v0v0v0zM0 0z" />
<glyph unicode="&#x1ef3;" horiz-adv-x="278" d="M0 0v0v0v0v0v0zM0 0z" />
<glyph unicode="&#x2013;" horiz-adv-x="280" d="M0 0z" />
<glyph unicode="&#x2014;" horiz-adv-x="442" d="M0 0z" />
<glyph unicode="&#x2018;" horiz-adv-x="146" d="M0 0v0v0v0v0z" />
<glyph unicode="&#x2019;" horiz-adv-x="146" d="M0 0v0v0v0v0z" />
<glyph unicode="&#x201a;" horiz-adv-x="153" d="M0 0v0v0v0v0z" />
<glyph unicode="&#x201c;" horiz-adv-x="292" d="M0 0v0v0v0v0zM0 0v0v0v0v0z" />
<glyph unicode="&#x201d;" horiz-adv-x="292" d="M0 0v0v0v0v0zM0 0v0v0v0v0z" />
<glyph unicode="&#x201e;" horiz-adv-x="306" d="M0 0v0v0v0v0zM0 0v0v0v0v0z" />
<glyph unicode="&#x2020;" horiz-adv-x="398" d="M0 0v0v0v0v0v0z" />
<glyph unicode="&#x2021;" horiz-adv-x="398" d="M0 0v0v0v0v0v0v0v0v0v0v0z" />
<glyph unicode="&#x2022;" horiz-adv-x="210" d="M0 0z" />
<glyph unicode="&#x2026;" horiz-adv-x="725" d="M0 0zM0 0zM0 0z" />
<glyph unicode="&#x2030;" horiz-adv-x="615" d="M0 0v0v0zM0 0v0v0zM0 0zM0 0v0v0zM0 0v0v0zM0 0v0v0zM0 0v0v0z" />
<glyph unicode="&#x2039;" horiz-adv-x="195" d="M0 0v0v0v0z" />
<glyph unicode="&#x203a;" horiz-adv-x="195" d="M0 0v0v0v0z" />
<glyph unicode="&#x2044;" horiz-adv-x="169" d="M0 0z" />
<glyph unicode="&#x2070;" horiz-adv-x="195" d="M0 0v0v0zM0 0v0v0z" />
<glyph unicode="&#x2074;" horiz-adv-x="191" d="M0 0zM0 0v0v0v0v0v0z" />
<glyph unicode="&#x2075;" horiz-adv-x="189" d="M0 0v0v0v0v0v0v0v0v0v0z" />
<glyph unicode="&#x2076;" horiz-adv-x="191" d="M0 0v0v0zM0 0v0v0v0v0v0v0z" />
<glyph unicode="&#x2077;" horiz-adv-x="175" d="M0 0v0v0v0z" />
<glyph unicode="&#x2078;" horiz-adv-x="188" d="M0 0v0v0v0v0v0zM0 0v0v0zM0 0v0v0z" />
<glyph unicode="&#x2079;" horiz-adv-x="190" d="M0 0v0v0zM0 0v0v0v0v0v0v0z" />
<glyph unicode="&#x2080;" horiz-adv-x="195" d="M0 0v0v0zM0 0v0v0z" />
<glyph unicode="&#x2081;" horiz-adv-x="132" d="M0 0v0v0v0v0z" />
<glyph unicode="&#x2082;" horiz-adv-x="186" d="M0 0v0v0v0v0v0v0v0v0z" />
<glyph unicode="&#x2083;" horiz-adv-x="186" d="M0 0v0v0v0v0v0v0v0v0v0v0v0v0z" />
<glyph unicode="&#x2084;" horiz-adv-x="191" d="M0 0zM0 0v0v0v0v0v0z" />
<glyph unicode="&#x2085;" horiz-adv-x="189" d="M0 0v0v0v0v0v0v0v0v0v0z" />
<glyph unicode="&#x2086;" horiz-adv-x="191" d="M0 0v0v0zM0 0v0v0v0v0v0v0z" />
<glyph unicode="&#x2087;" horiz-adv-x="175" d="M0 0v0v0v0z" />
<glyph unicode="&#x2088;" horiz-adv-x="188" d="M0 0v0v0v0v0v0zM0 0v0v0zM0 0v0v0z" />
<glyph unicode="&#x2089;" horiz-adv-x="190" d="M0 0v0v0zM0 0v0v0v0v0v0v0z" />
<glyph unicode="&#x20ac;" horiz-adv-x="345" d="M0 0v0v0v0v0v0v0v0v0v0v0v0v0v0v0z" />
<glyph unicode="&#x2122;" horiz-adv-x="488" d="M0 0v0v0v0zM0 0v0v0v0v0v0v0v0z" />
<glyph unicode="&#x2153;" horiz-adv-x="484" d="M0 0v0v0v0v0zM0 0zM0 0v0v0v0v0v0v0v0v0v0v0v0v0z" />
<glyph unicode="&#x2154;" horiz-adv-x="484" d="M0 0v0v0v0v0v0v0v0v0zM0 0zM0 0v0v0v0v0v0v0v0v0v0v0v0v0z" />
<glyph unicode="&#x215b;" horiz-adv-x="484" d="M0 0v0v0v0v0zM0 0zM0 0v0v0v0v0v0zM0 0v0v0zM0 0v0v0z" />
<glyph unicode="&#x215c;" horiz-adv-x="484" d="M0 0v0v0v0v0v0v0v0v0v0v0v0v0zM0 0zM0 0v0v0v0v0v0zM0 0v0v0zM0 0v0v0z" />
<glyph unicode="&#x215d;" horiz-adv-x="484" d="M0 0v0v0v0v0v0v0v0v0v0zM0 0zM0 0v0v0v0v0v0zM0 0v0v0zM0 0v0v0z" />
<glyph unicode="&#x215e;" horiz-adv-x="484" d="M0 0v0v0v0zM0 0zM0 0v0v0v0v0v0zM0 0v0v0zM0 0v0v0z" />
<glyph unicode="&#x2202;" horiz-adv-x="430" d="M0 0v0v0v0v0zM0 0z" />
<glyph unicode="&#x220f;" horiz-adv-x="452" d="M0 0v0v0v0z" />
<glyph unicode="&#x2211;" horiz-adv-x="409" d="M0 0v0v0v0v0v0z" />
<glyph unicode="&#x2212;" horiz-adv-x="466" d="M0 0z" />
<glyph unicode="&#x221a;" horiz-adv-x="476" d="M0 0v0v0v0v0z" />
<glyph unicode="&#x221e;" horiz-adv-x="614" d="M0 0v0v0v0zM0 0zM0 0z" />
<glyph unicode="&#x222b;" horiz-adv-x="296" d="M0 0v0v0v0v0v0z" />
<glyph unicode="&#x2248;" horiz-adv-x="467" d="M0 0v0v0v0zM0 0v0v0v0z" />
<glyph unicode="&#x2260;" horiz-adv-x="466" d="M0 0v0v0v0v0v0v0v0v0v0z" />
<glyph unicode="&#x2264;" horiz-adv-x="466" d="M0 0v0v0v0zM0 0z" />
<glyph unicode="&#x2265;" horiz-adv-x="466" d="M0 0v0v0v0zM0 0z" />
<glyph unicode="&#x25ca;" horiz-adv-x="400" d="M0 0v0v0zM0 0z" />
<glyph unicode="&#x25fc;" horiz-adv-x="620" d="M0 0z" />
<glyph unicode="&#xf8ff;" horiz-adv-x="136" />
<glyph unicode="&#xfb01;" horiz-adv-x="349" d="M0 0v0v0v0v0v0v0v0zM0 0zM0 0z" />
<glyph unicode="&#xfb02;" horiz-adv-x="346" d="M0 0v0v0v0v0v0v0v0zM0 0z" />
<glyph horiz-adv-x="136" />
</font>
</defs>
</svg>
